<svg width="76" height="76" viewBox="0 0 76 76" fill="none" xmlns="http://www.w3.org/2000/svg">
<g id="layer1">
<rect id="Rectangle 59" x="3" y="3" width="70" height="70" rx="35" fill="white"/>
<path id="path1" d="M38 73C57.33 73 73 57.33 73 38C73 18.67 57.33 3 38 3C18.67 3 3 18.67 3 38C3 57.33 18.67 73 38 73Z" stroke="#6360FF" stroke-width="5.33579" stroke-miterlimit="0" stroke-linecap="round" stroke-linejoin="round"/>
<path id="path2" d="M38.0001 73C52.3255 73 63.9385 65.5497 63.9385 56.3592C63.9385 47.1688 52.3255 39.7185 38.0001 39.7185C23.6748 39.7185 12.0618 47.1688 12.0618 56.3592C12.0618 65.5497 23.6748 73 38.0001 73Z" fill="#6360FF"/>
<path id="path4" d="M48.9106 26.1408C48.9106 28.8725 47.8281 31.493 45.9002 33.4284C43.9722 35.3638 41.3559 36.4563 38.6241 36.4668C35.8924 36.4773 33.2677 35.4049 31.325 33.4844C29.3822 31.5639 28.2796 28.9518 28.2586 26.2201C28.2376 23.4884 29.2999 20.8597 31.2129 18.9096C33.1259 16.9594 35.7338 15.8468 38.4654 15.8153C41.197 15.7838 43.8298 16.836 45.7872 18.7415C47.7447 20.647 48.8674 23.2505 48.9094 25.982" fill="#6360FF"/>
</g>
</svg>
